<svg xmlns="http://www.w3.org/2000/svg" xmlns:xlink="http://www.w3.org/1999/xlink" viewBox="0 0 38 38" fill="white"><defs><path id="a" d="M0 0h38v38H0z"/></defs><clipPath id="b"><use xlink:href="#a" overflow="visible"/></clipPath><path clip-path="url(#b)" fill="#C4161C" d="M2.8 20.2s-2.4 0-2.4 2.4v13S.4 38 2.8 38h12.9s2.4 0 2.4-2.4v-13s0-2.4-2.4-2.4H2.8zM22.7.1s-2.4 0-2.4 2.4v13s0 2.4 2.4 2.4h12.9s2.4 0 2.4-2.4v-13S38 .1 35.6.1H22.7z"/><path clip-path="url(#b)" d="M16.9 17.5c-1.4.1-3.3.3-7.5.3-5 0-9.4-.8-9.4-5V5C0 .7 4.5 0 9.4 0c4.2 0 6.1.2 7.5.3.5 0 .8.2.8.5V3c0 .3-.3.5-.8.5H9.1c-1.9-.1-2.5.3-2.5 1.5v2.1h10c.4 0 .8.2.8.5v2.2c0 .3-.3.5-.8.5h-10v2.5c0 1.2.7 1.6 2.5 1.6H17c.4 0 .8.2.8.5V17c-.1.3-.3.4-.9.5m20.2 6.3c-1.7 0-4.1-.2-6.9-.2-2.6 0-4.3.9-4.3 4v2.9c0 3.2 2.1 4 3.7 4 .9 0 1.7 0 2.5-.1V29c0-.3.3-.5.6-.5h4.2c.4 0 .7.2.7.5v7.9c0 .3-.2.5-.7.5-1.8.3-4 .5-7.3.5-3.7 0-9.3-1.5-9.3-7.4v-2.9c0-6 5.2-7.5 9.9-7.5 3.3 0 5.6.4 6.8.5.3 0 .6.1.6.4v2.5c0 .2-.2.3-.5.3"/></svg>